# xmcd
#
# Track frame offsets:
# 150
# 9075
# 19200
# 29063
# 42493
# 52463
# 64110
# 70653
# 75450
# 84038
#
# Disc length: 1226 seconds
#
#
# Revision: 0
# Processed by: cddbd v1.4PL0 Copyright (c) Steve Scherf et al.
# Submitted via: FreeRIP 2.52 
#
DISCID=7904c80a
DTITLE=Gene Autry - Cowboy's Christmas
DYEAR=1998
DGENRE=Vocal
TTITLE0=Jingle Bells
TTITLE1=Here Comes Santa Claus
TTITLE2=Silver Bells
TTITLE3=Rudolph The red-Nosed Reindeer
TTITLE4=Santa Claus Is Coming To Town
TTITLE5=Up On The Housetop
TTITLE6=Silent Night
TTITLE7=Joy To The World
TTITLE8=Frosty The Snowman
TTITLE9=32 Feet And 8 Little Tails
EXTD=
EXTT0=
EXTT1=
EXTT2=
EXTT3=
EXTT4=
EXTT5=
EXTT6=
EXTT7=
EXTT8=
EXTT9=
PLAYORDER=
